<svg width="256" height="256" viewBox="0 0 256 256" fill="none" xmlns="http://www.w3.org/2000/svg">
<path d="M52.9185 202.342C52.9185 202.032 52.6764 201.78 52.3701 201.78L0.732621 201.795C0.469092 201.795 0.305276 201.665 0.255419 201.398C-0.0793341 199.706 0.625785 198.439 1.97192 197.308C4.81376 194.91 7.53452 192.368 10.1271 189.696C29.0371 170.232 43.1252 155.966 52.3772 146.9C53.2248 146.064 54.4712 145.647 56.1023 145.647C73.1319 145.625 90.1972 145.625 107.298 145.647C108.53 145.647 109.15 146.28 109.15 147.526C109.164 163.066 109.164 178.585 109.157 194.075C109.15 197.323 109.584 199.793 107.626 202.522C107.54 202.637 106.166 204.041 103.495 206.727C87.448 222.865 71.3086 239.169 55.0624 255.624C54.5709 256.121 53.7732 256.128 53.2818 255.631C53.0467 255.393 52.9114 255.069 52.9114 254.731V202.342H52.9185Z" fill="#455A72"/>
<path d="M202.453 202.99C202.453 220.151 202.403 237.311 202.289 254.486C202.289 255.624 201.676 256.092 200.465 255.898C199.319 255.71 198.4 255.271 197.709 254.573C181.733 238.377 165.737 222.203 149.718 206.051C146.285 202.594 146.805 200.052 146.812 194.37C146.834 178.261 146.855 162.116 146.876 145.935C146.876 145.69 146.997 145.568 147.233 145.568L201.904 145.546C202.652 145.546 203.371 145.849 203.898 146.381C220.885 163.628 238.001 180.962 255.237 198.389C256.091 199.253 256.227 200.491 255.65 202.105C255.579 202.313 255.379 202.45 255.158 202.45L202.965 202.472C202.624 202.472 202.453 202.645 202.453 202.99Z" fill="#00728D"/>
<path d="M254.718 53.4928C255.053 53.4928 255.373 53.6224 255.608 53.8673C256.092 54.3641 256.092 55.1707 255.601 55.6676C239.326 72.0936 223.201 88.4115 207.24 104.636C204.583 107.336 203.194 108.726 203.08 108.813C200.381 110.793 197.938 110.354 194.726 110.361C179.405 110.368 164.057 110.361 148.686 110.354C147.454 110.354 146.835 109.727 146.828 108.481C146.806 91.1912 146.806 73.9371 146.828 56.7189C146.828 55.0699 147.241 53.8096 148.067 52.9527C157.034 43.5983 171.143 29.3543 190.395 10.235C193.038 7.61379 195.552 4.86292 197.924 1.98963C199.042 0.628599 200.296 -0.0843219 201.969 0.254136C202.233 0.304544 202.361 0.470172 202.361 0.736618L202.347 52.9455C202.347 53.2551 202.596 53.5 202.902 53.5H254.718V53.4928Z" fill="#008EB0"/>
<path d="M52.8835 53.6213L52.9049 0.850762C52.9049 0.627524 53.0402 0.42589 53.2467 0.353877C54.8422 -0.229422 56.0672 -0.0925985 56.9219 0.771548C74.1581 18.1985 91.3018 35.5031 108.36 52.678C108.887 53.2109 109.186 53.9382 109.186 54.6943L109.165 109.971C109.165 110.209 109.044 110.331 108.802 110.331C92.7975 110.353 76.829 110.374 60.8962 110.396C55.2766 110.396 52.7624 110.929 49.3436 107.458C33.3681 91.2621 17.3711 75.0882 1.35283 58.9358C0.661955 58.2373 0.227488 57.3084 0.0423056 56.149C-0.15 54.9248 0.312957 54.3127 1.4383 54.3055C18.4253 54.1902 35.398 54.1326 52.3707 54.1398C52.7125 54.1398 52.8835 53.967 52.8835 53.6213Z" fill="#55B3CA"/>
</svg>
