<svg width="222" height="222" viewBox="0 0 222 222" fill="none" xmlns="http://www.w3.org/2000/svg">
<rect width="222" height="222" rx="40" fill="#68A02F"/>
<path d="M131.687 37.0764C161.61 37.0764 176 52.8836 176 69.3782C176 106.796 121.942 121 97.5772 121.687V133.982C97.5772 171.4 98.9477 181.404 101.08 184H64C66.0557 181.404 67.5024 171.4 67.5024 133.982V87.0182C67.5024 49.6 66.1319 39.5964 64 37H131.763L131.687 37.0764ZM97.5772 40.5891V118.556C123.997 117.64 143.946 102.52 143.946 75.4873C143.946 57.3127 132.829 40.5891 110.292 40.5891H97.501H97.5772Z" fill="#F3F2EC"/>
</svg>
