<svg width="98" height="107" viewBox="0 0 98 107" xmlns="http://www.w3.org/2000/svg"><path d="M84.4799 107C83.1962 107 82.1611 105.959 82.1611 104.679V81.5161C82.1611 76.6524 83.5767 72.025 86.2482 68.1366C90.9011 61.3631 93.3595 53.4187 93.3595 45.1671C93.3595 22.8223 75.1056 4.64268 52.6708 4.64268C46.7037 4.64268 40.9117 5.95065 35.4469 8.52851C22.6071 14.6925 13.7935 27.2033 12.4615 41.1669C12.3068 42.7898 12.2433 44.4305 12.2789 46.0407C12.3677 50.2669 11.4772 54.6251 9.63275 59.0011L4.69825 70.6942C4.57901 70.9761 4.65766 71.2174 4.71347 71.3316C4.77182 71.4536 4.9139 71.6669 5.21326 71.7507L11.0865 73.3838C13.1973 73.973 14.7372 75.7534 15.0163 77.9274L17.5457 93.7222C17.5635 93.8441 17.5762 93.9634 17.5762 94.0853C17.5812 96.4016 19.4662 98.2861 21.7825 98.2861H36.4998C42.1472 98.2861 46.7443 93.6866 46.7443 88.0305C46.7443 86.7454 47.7845 85.7092 49.0631 85.7092C50.3418 85.7092 51.382 86.748 51.382 88.0305C51.382 96.2467 44.7071 102.931 36.4973 102.931H21.78C16.98 102.931 13.0527 99.0734 12.9385 94.2936L10.4243 78.5928C10.3736 78.2042 10.1478 77.9477 9.84332 77.8614L3.97012 76.2334C2.46821 75.8143 1.21238 74.7679 0.535 73.3634C-0.142385 71.9615 -0.182977 70.3284 0.423371 68.8909L5.35534 57.2004C6.94605 53.4314 7.71477 49.7132 7.63866 46.1474C7.6006 44.3569 7.6691 42.5333 7.84162 40.7301C9.32831 25.1538 19.1415 11.213 33.4554 4.34045C39.5569 1.45528 46.0162 0 52.6708 0C77.6629 0 97.9997 20.2622 97.9997 45.1696C97.9997 54.3661 95.2572 63.2197 90.0715 70.7729C87.9328 73.8841 86.8038 77.5972 86.8038 81.5186V104.681C86.7987 105.964 85.7611 107 84.4799 107Z M75.5144 44.0853C75.0958 44.0853 74.6696 43.971 74.289 43.7322C73.2006 43.0541 72.8708 41.6217 73.5482 40.5347C74.497 39.0108 74.9994 37.2533 74.9994 35.4526C74.9994 30.1521 70.6915 25.8371 65.3942 25.8371C64.8944 25.8371 64.4022 25.8777 63.9202 25.9489C62.8826 26.1165 61.8728 25.5552 61.4466 24.5977C59.5743 20.3842 55.4745 17.6642 50.9966 17.6642C44.6947 17.6642 39.5648 22.797 39.5648 29.1083C39.5648 29.5959 39.5953 30.076 39.6562 30.5509C39.816 31.8233 38.9153 32.984 37.6443 33.144C36.3859 33.3015 35.2164 32.4024 35.054 31.13C34.9703 30.4671 34.9297 29.7915 34.9297 29.1083C34.9297 20.2369 42.1399 13.0215 50.9992 13.0215C56.7506 13.0215 62.0504 16.1809 64.9223 21.202C65.0771 21.197 65.2369 21.1944 65.3942 21.1944C73.2488 21.1944 79.6396 27.5921 79.6396 35.4552C79.6396 38.127 78.8962 40.7353 77.4857 42.9982C77.0417 43.7043 76.2857 44.0903 75.5119 44.0903L75.5144 44.0853Z M35.6379 53.0449C27.7833 53.0449 21.3926 46.6473 21.3926 38.7842C21.3926 30.9211 27.7833 24.5234 35.6379 24.5234C35.8815 24.5234 36.1251 24.5285 36.3686 24.5412C37.6498 24.6047 38.6342 25.6943 38.5707 26.9743C38.5073 28.2569 37.4265 29.2601 36.1403 29.1788C35.9754 29.1712 35.8079 29.1661 35.6405 29.1661C30.3457 29.1661 26.0353 33.4786 26.0353 38.7816C26.0353 44.0847 30.3432 48.3972 35.6405 48.3972C36.9217 48.3972 37.9593 49.4385 37.9593 50.7185C37.9593 51.9985 36.9166 53.0398 35.6379 53.0398V53.0449Z M72.5917 59.6061C65.8661 59.6061 60.3887 54.1253 60.3887 47.3899C60.3887 46.1073 61.4263 45.0685 62.7075 45.0685C63.9887 45.0685 65.0263 46.1098 65.0263 47.3899C65.0263 51.5652 68.4209 54.9609 72.5892 54.9609C76.7575 54.9609 80.1521 51.5627 80.1521 47.3899C80.1521 44.7307 78.7313 42.2367 76.4455 40.8754C75.3444 40.2201 74.9842 38.7953 75.6387 37.6931C76.2933 36.5908 77.714 36.2302 78.8176 36.8854C82.5013 39.0798 84.7872 43.1053 84.7872 47.3899C84.7872 54.1278 79.3123 59.6086 72.5867 59.6086L72.5917 59.6061Z M60.3066 49.437C57.5057 49.437 54.7378 48.1519 52.9492 45.7265C52.1881 44.6928 52.4088 43.24 53.4388 42.4806C54.4689 41.7187 55.92 41.9397 56.6811 42.9708C58.1501 44.962 60.9636 45.3912 62.9527 43.9232C64.3455 42.8972 65.0178 41.2006 64.7057 39.4964C64.4749 38.2367 65.3096 37.0252 66.5704 36.7941C67.8313 36.5782 69.039 37.4011 69.2673 38.6608C69.9016 42.1225 68.5366 45.5715 65.7079 47.6592C64.0816 48.858 62.1865 49.437 60.3066 49.437Z M58.4077 38.8785C58.291 38.8785 58.1743 38.8708 58.0576 38.8531C56.7917 38.66 55.9215 37.4765 56.1143 36.2092C56.2919 35.0231 56.0001 33.8396 55.2897 32.8719C54.5768 31.9068 53.5341 31.2744 52.3493 31.0966C50.6419 30.835 48.9675 31.5614 47.9857 32.9837C47.2575 34.0377 45.8089 34.2993 44.7586 33.5729C43.7032 32.844 43.4419 31.3963 44.17 30.3423C46.1692 27.4445 49.5814 25.9816 53.0445 26.5022C55.4546 26.8679 57.5781 28.148 59.0268 30.1137C60.4729 32.077 61.0691 34.4897 60.7012 36.9C60.5236 38.053 59.5342 38.8785 58.4077 38.8785Z M57.9602 75.4284C56.6764 75.4284 55.6413 74.3897 55.6413 73.1071V66.4885C55.6413 63.3519 53.0916 60.802 49.9609 60.802H44.9351C39.4196 60.802 34.9316 56.3091 34.9316 50.7877C34.9316 45.2663 39.4196 40.7734 44.9351 40.7734C46.2163 40.7734 47.2539 41.8147 47.2539 43.0948C47.2539 44.3748 46.2138 45.4161 44.9351 45.4161C41.9769 45.4161 39.5693 47.8263 39.5693 50.7877C39.5693 53.7491 41.9769 56.1593 44.9351 56.1593H49.9609C55.6515 56.1593 60.2815 60.7944 60.2815 66.491V73.1096C60.2815 74.3948 59.2439 75.431 57.9627 75.431L57.9602 75.4284Z" fill="white"/></svg>