<svg width="124" height="124" viewBox="0 0 124 124" xmlns="http://www.w3.org/2000/svg"><path d="M72.2227 115.003L67.3596 110.14C66.4127 109.195 64.8796 109.195 63.9351 110.14C62.9905 111.084 62.9905 112.62 63.9351 113.564L64.6641 114.293H57.1369C28.302 114.293 4.84375 90.8348 4.84375 62C4.84375 60.6631 3.75875 59.5781 2.42188 59.5781C1.085 59.5781 0 60.6631 0 62C0 93.5764 25.5556 119.137 57.1369 119.137H64.6641L63.9351 119.866C62.9905 120.81 62.9905 122.346 63.9351 123.29C64.882 124.237 66.4151 124.237 67.3596 123.29C68.4616 122.188 72.1065 118.548 72.2518 118.393C73.1842 117.427 73.1358 115.909 72.2227 115V115.003Z M66.8631 4.86387H59.336L60.0649 4.13488C61.0095 3.19035 61.0095 1.65488 60.0649 0.710352C59.118 -0.23418 57.5849 -0.23418 56.6404 0.710352C55.4658 1.88496 51.8911 5.45723 51.7337 5.62191C50.811 6.59551 50.8691 8.09223 51.7773 9.00043L56.6404 13.8636C57.1127 14.3358 57.7327 14.5732 58.3527 14.5732C60.4912 14.5732 61.5956 11.9696 60.0649 10.439L59.336 9.71004H66.8631C95.698 9.71004 119.156 33.1683 119.156 62.0032C119.156 63.34 120.241 64.425 121.578 64.425C122.915 64.425 124 63.34 124 62.0032C124 30.4243 98.4444 4.86629 66.8631 4.86629V4.86387Z M31.4828 93.3362H29.1699C27.8331 93.3362 26.7481 94.4212 26.7481 95.7581C26.7481 97.095 27.8331 98.18 29.1699 98.18C37.9517 98.1751 37.4406 98.2042 37.8015 98.1339C38.9156 97.9136 39.7511 96.9254 39.7511 95.7581V87.5334C39.7511 86.1965 38.6661 85.1115 37.3292 85.1115C35.9924 85.1115 34.9074 86.1965 34.9074 87.5334V89.9117L31.8994 86.9037C16.736 71.7403 16.736 47.0663 31.8994 31.9005C32.8439 30.956 32.8439 29.4205 31.8994 28.476C30.9524 27.5314 29.4194 27.5314 28.4749 28.476C11.4224 45.5284 11.4224 73.2758 28.4749 90.3282L31.4828 93.3362Z M96.7488 36.6914H99.0616C100.399 36.6914 101.484 35.6064 101.484 34.2695C101.484 32.9327 100.399 31.8477 99.0616 31.8477H90.9024C89.5509 31.8477 88.4781 32.952 88.4805 34.272V42.4966C88.4805 43.8335 89.5655 44.9185 90.9024 44.9185C92.2392 44.9185 93.3242 43.8335 93.3242 42.4966V40.1184L96.3322 43.1239C111.532 58.3236 111.534 82.925 96.3322 98.1271C95.3877 99.0716 95.3877 100.607 96.3322 101.552C96.8045 102.024 97.4245 102.261 98.0445 102.261C98.6645 102.261 99.2845 102.024 99.7567 101.552C116.848 84.4605 116.85 56.793 99.7567 39.697L96.7512 36.6914H96.7488Z M89.483 67.1274C91.3261 57.2002 87.7151 47.1615 80.0377 40.6612C81.687 38.8908 82.6606 36.5343 82.6606 34.0349C82.6606 28.6777 78.3012 24.3184 72.9441 24.3184C67.5869 24.3184 63.2178 28.6123 63.2275 34.0737C61.0914 33.9816 58.9844 34.1245 56.8749 34.5169C55.5453 32.7538 53.4334 31.613 51.06 31.613C46.364 31.613 42.8571 36.0281 43.9857 40.6321C36.4295 47.0186 32.6586 57.0936 34.521 67.1274C32.7579 68.4595 31.6172 70.5689 31.6172 72.9448C31.6172 77.6505 36.0395 81.1452 40.6338 80.0215C43.4868 83.4097 47.0566 86.0471 51.1181 87.7594C50.5345 94.2088 55.6325 99.6871 62.0044 99.6871C68.3764 99.6871 73.4744 94.2088 72.8908 87.7594C76.9523 86.0495 80.5221 83.4121 83.3751 80.0215C87.9742 81.1477 92.3941 77.6456 92.3941 72.9472C92.3941 70.5738 91.2534 68.4619 89.4903 67.1298L89.483 67.1274ZM72.9416 29.1621C75.6299 29.1621 77.8145 31.3491 77.8145 34.0349C77.8145 35.5195 77.1315 36.9048 76.0077 37.8155C73.5859 36.4059 70.9315 35.3524 68.1197 34.7203C67.6959 31.7196 70.0354 29.1597 72.9392 29.1597L72.9416 29.1621ZM51.0576 36.4568C52.4041 36.4568 53.4988 37.5515 53.4988 38.898C53.4988 40.2446 52.4041 41.3393 51.0576 41.3393C49.711 41.3393 48.6163 40.2446 48.6163 38.898C48.6163 37.5515 49.711 36.4568 51.0576 36.4568ZM36.4561 72.9423C36.4561 71.5958 37.5508 70.5011 38.8973 70.5011C40.2439 70.5011 41.3386 71.5958 41.3386 72.9423C41.3386 74.2889 40.2439 75.3836 38.8973 75.3836C37.5508 75.3836 36.4561 74.2889 36.4561 72.9423ZM61.9996 94.8385C58.6429 94.8385 55.911 92.1066 55.911 88.7499C55.911 85.3932 58.6429 82.6613 61.9996 82.6613C65.3563 82.6613 68.0882 85.3932 68.0882 88.7499C68.0882 92.1066 65.3563 94.8385 61.9996 94.8385ZM71.3723 83.1287C67.1243 76.0714 56.8991 76.0278 52.627 83.1287C49.5996 81.7894 46.9137 79.8229 44.7098 77.3308C45.635 76.1102 46.1848 74.5892 46.1848 72.9423C46.1848 69.0189 43.0678 65.8123 39.1783 65.6646C37.8995 57.6361 40.9414 49.7989 46.6691 44.7105C47.8898 45.6357 49.4107 46.1855 51.0576 46.1855C54.981 46.1855 58.1876 43.0685 58.3353 39.179C73.7723 36.7208 87.313 50.0363 84.8209 65.6646C80.9338 65.8123 77.8145 69.0189 77.8145 72.9423C77.8145 74.5892 78.3642 76.1077 79.2894 77.3308C77.0855 79.8229 74.3972 81.7894 71.3723 83.1287ZM85.1019 75.3836C83.7553 75.3836 82.6606 74.2889 82.6606 72.9423C82.6606 71.5958 83.7553 70.5011 85.1019 70.5011C86.4484 70.5011 87.5431 71.5958 87.5431 72.9423C87.5431 74.2889 86.4484 75.3836 85.1019 75.3836Z M61.9998 54.7148C57.982 54.7148 54.7148 57.982 54.7148 61.9998C54.7148 66.0177 57.982 69.2848 61.9998 69.2848C66.0177 69.2848 69.2848 66.0177 69.2848 61.9998C69.2848 57.982 66.0177 54.7148 61.9998 54.7148ZM61.9998 64.4411C60.6533 64.4411 59.5586 63.3464 59.5586 61.9998C59.5586 60.6533 60.6533 59.5586 61.9998 59.5586C63.3464 59.5586 64.4411 60.6533 64.4411 61.9998C64.4411 63.3464 63.3464 64.4411 61.9998 64.4411Z" fill="white"/></svg>