<svg width="165" height="167" viewBox="0 0 165 167" fill="none" xmlns="http://www.w3.org/2000/svg">
<path d="M82.3921 0C36.9051 0 0 37.2241 0 83.1044C0 128.985 36.9051 166.209 82.3921 166.209C127.879 166.209 164.784 128.985 164.784 83.1044C164.784 37.2241 127.904 0 82.3921 0ZM113.442 155.736C111.115 156.114 107.738 156.442 104.485 155.887C102.208 155.206 99.1057 153.969 97.1541 152.001C93.8014 148.619 89.7981 143.799 88.2469 135.243C87.4712 126.537 87.4712 120.354 89.3227 114.246C91.1743 108.139 95.0274 102.385 97.3042 100.644C99.5811 98.9278 104.11 98.9026 110.29 99.3064C116.495 99.7102 118.046 100.72 118.697 101.224C118.847 101.351 118.972 101.451 119.072 101.552C118.597 118.562 133.158 118.486 133.158 118.486C135.31 109.048 128.505 104.228 123.651 102.032L133.884 103.42C146.594 113.287 155.126 101.981 155.126 101.981C147.495 92.6186 137.012 98.8269 133.559 101.3C132.383 101.149 130.606 100.871 128.104 100.316C122.6 99.1045 118.046 97.7922 113.117 97.2622C108.188 96.7322 105.586 96.3537 105.586 96.3537C105.586 96.3537 106.687 95.0666 110.84 93.3757C114.969 91.6849 119.147 89.666 122.8 87.7984C126.028 86.1328 132.458 80.7826 133.234 80.2022C133.859 79.546 137.412 75.912 137.662 75.1801C137.787 74.8773 137.887 74.5492 137.962 74.2716C152.599 73.9687 151.949 61.2242 151.949 61.2242C141.64 59.3062 138.112 69.4009 137.187 73.0097C136.987 73.0097 136.786 73.0097 136.561 73.1107C135.66 73.464 134.96 74.4735 133.033 76.4167C131.107 78.3599 128.154 80.7322 126.178 82.1707C124.226 83.6091 120.198 85.401 116.72 86.8142C113.267 88.2275 109.539 89.6155 106.637 90.6249C103.709 91.6344 101.608 92.6439 99.1808 93.931C96.7538 95.218 95.728 96.1013 95.0024 96.5808C94.2768 97.0603 93.7514 97.3631 93.7514 96.3284C93.7514 95.2937 94.2518 92.972 95.828 90.0445C97.4043 87.0918 99.0807 83.3568 101.758 80.3284C104.435 77.3 108.789 73.464 110.415 71.5965C112.066 69.729 116.795 64.7321 117.696 63.5712C118.597 62.4103 122.725 56.6059 123.576 54.5365C124.426 52.4671 125.102 49.5396 125.177 47.8488C125.252 46.1579 124.902 45.5018 124.902 45.5018C124.902 45.5018 124.151 45.7289 123.576 46.9655C123 48.2273 122.325 51.0033 120.373 54.486C118.421 57.9687 113.442 63.6974 111.641 65.6406C109.839 67.5838 104.36 72.5555 101.908 74.852C99.456 77.1486 97.9047 79.0665 95.4277 82.0949C92.9257 85.1233 90.874 88.2527 89.9733 90.1455C89.0725 92.0634 87.9716 95.1928 87.6464 95.647C87.3211 96.1013 86.5455 96.8584 86.3203 95.8742C86.0951 94.8647 86.2452 86.3095 86.3203 84.2905C86.3954 82.2716 88.0217 74.1706 90.0233 69.9309C92.0249 65.6911 94.9774 59.9119 96.7288 57.1359C98.4802 54.3598 102.333 49.6153 103.034 46.4103C103.734 43.2052 104.035 40.6311 104.21 39.6216C104.385 38.6121 104.36 38.1074 103.985 37.9307C103.609 37.7541 103.159 37.527 102.634 39.1169C102.108 40.7068 100.982 43.7099 99.6812 46.7131C98.3801 49.7163 95.6529 53.5775 93.5762 56.5807C91.4995 59.5586 90.0734 61.7289 88.3219 64.934C86.5705 68.1391 85.4446 70.5365 84.744 72.7069C84.1685 74.5492 83.2428 76.5681 82.7674 78.0318C82.292 76.5933 81.3663 74.5492 80.7908 72.7069C80.1152 70.5365 78.9643 68.1391 77.2129 64.934C75.4615 61.7289 74.0353 59.5838 71.9586 56.5807C69.8819 53.6027 67.1797 49.7163 65.8536 46.7131C64.5275 43.7099 63.4267 40.7068 62.9012 39.1169C62.3758 37.527 61.9004 37.7541 61.5501 37.9307C61.1998 38.1074 61.1498 38.6121 61.3249 39.6216C61.5001 40.6311 61.8003 43.2304 62.5009 46.4103C63.2015 49.5901 67.0546 54.3598 68.806 57.1359C70.5575 59.9119 73.5099 65.6911 75.5115 69.9309C77.5131 74.1706 79.1395 82.2716 79.2145 84.2905C79.2896 86.3095 79.4397 94.8647 79.2145 95.8742C78.9893 96.8837 78.2137 96.1265 77.8884 95.647C77.5632 95.1676 76.4623 92.0382 75.5615 90.1455C74.6608 88.2275 72.6091 85.0981 70.1071 82.0949C67.6051 79.0665 66.0788 77.1738 63.6268 74.852C61.1748 72.5555 55.6954 67.5838 53.8939 65.6406C52.0924 63.6974 47.1134 57.9687 45.1618 54.486C43.2102 51.0033 42.5346 48.2273 41.9592 46.9655C41.3837 45.7036 40.6331 45.5018 40.6331 45.5018C40.6331 45.5018 40.2828 46.1579 40.3579 47.8488C40.4329 49.5396 41.1085 52.4671 41.9592 54.5365C42.8099 56.6059 46.9382 62.4103 47.839 63.5712C48.7397 64.7321 53.4685 69.729 55.1199 71.5965C56.7712 73.464 61.0998 77.3252 63.7769 80.3284C66.4541 83.3315 68.1305 87.0918 69.7068 90.0445C71.2831 92.9972 71.7835 95.2937 71.7835 96.3284C71.7835 97.3631 71.258 97.0855 70.5324 96.5808C69.8069 96.0761 68.781 95.218 66.354 93.931C63.9271 92.6439 61.8254 91.6344 58.898 90.6249C55.9706 89.6155 52.2676 88.2022 48.8148 86.8142C45.3619 85.4262 41.3337 83.6091 39.3571 82.1707C37.4055 80.7322 34.428 78.3599 32.5015 76.4167C30.5749 74.4735 29.8743 73.464 28.9736 73.1107C28.7484 73.0097 28.5483 72.9845 28.3481 73.0097C27.4223 69.4009 23.8694 59.3062 13.5861 61.2242C13.5861 61.2242 12.9355 73.9687 27.5725 74.2716C27.6475 74.5492 27.7476 74.8773 27.8727 75.1801C28.1479 75.912 31.7008 79.546 32.3013 80.2022C33.0769 80.8079 39.5072 86.1328 42.7348 87.7984C46.3628 89.666 50.5412 91.6849 54.6945 93.3757C58.8229 95.0666 59.9488 96.3537 59.9488 96.3537C59.9488 96.3537 57.3467 96.707 52.4177 97.2622C47.4887 97.7922 42.935 99.1045 37.4305 100.316C34.9034 100.871 33.152 101.149 31.976 101.3C28.5232 98.8269 18.0147 92.6186 10.4085 101.981C10.4085 101.981 18.9404 113.287 31.6508 103.42L41.8841 102.032C37.0051 104.228 30.2246 109.048 32.3764 118.486C32.3764 118.486 46.9382 118.587 46.4628 101.552C46.5629 101.451 46.688 101.325 46.8381 101.224C47.4887 100.72 49.0399 99.7102 55.245 99.3064C61.45 98.9026 65.9537 98.9278 68.2306 100.644C70.5074 102.36 74.3606 108.114 76.2121 114.246C78.0636 120.379 78.0636 126.562 77.2879 135.243C75.7117 143.799 71.7334 148.619 68.3807 152.001C66.8795 153.515 64.7027 154.6 62.7261 155.332C62.5509 155.382 62.3758 155.433 62.2007 155.483C58.3976 156.594 54.1191 156.215 51.3668 155.736C23.5192 143.622 4.00326 115.66 4.00326 83.1044C4.00326 39.4449 39.1069 4.03787 82.3921 4.03787C125.677 4.03787 160.781 39.4449 160.781 83.1044C160.781 115.66 141.29 143.597 113.417 155.736H113.442Z" fill="#234348"/>
<path d="M32.3267 80.2275C32.4515 80.3534 32.4764 80.3534 32.3267 80.2275C32.2019 80.152 32.2268 80.152 32.3267 80.2275Z" fill="#234348"/>
<path d="M133.207 80.2274C133.082 80.3532 133.082 80.3784 133.207 80.2274V80.2274Z" fill="#234348"/>
<path d="M62.8765 102.208C62.8765 102.208 45.5874 105.994 48.8901 120.277C48.8901 120.277 64.0774 120.328 62.8765 102.208Z" fill="#234348"/>
<path d="M43.8619 94.7379C43.8619 94.7379 35.405 81.6905 24.8965 88.883C24.8965 88.883 29.6003 101.375 43.8619 94.7379Z" fill="#689E2F"/>
<path d="M28.8741 78.7145C28.8741 78.7145 15.338 71.2192 9.4082 82.5757C9.4082 82.5757 19.3913 91.3581 28.8741 78.7145Z" fill="#234348"/>
<path d="M47.4625 69.5778C47.4625 69.5778 42.7086 54.7639 30.6738 58.9027C30.6738 58.9027 31.9749 72.2024 47.4625 69.5778Z" fill="#234348"/>
<path d="M60.1734 84.8454C60.1734 84.8454 55.4196 70.0315 43.3848 74.1703C43.3848 74.1703 44.6858 87.47 60.1734 84.8454Z" fill="#234348"/>
<path d="M68.1542 71.5198C68.1542 71.5198 71.1566 56.2264 58.6464 53.9551C58.6464 53.9551 53.3421 66.2201 68.1542 71.5198Z" fill="#234348"/>
<path d="M74.1104 79.3688C74.1104 79.3688 75.2863 73.3372 70.3573 72.4287C70.3573 72.4287 68.2556 77.2742 74.1104 79.3688Z" fill="#689E2F"/>
<path d="M48.9132 26.272C48.9132 26.272 51.3402 20.619 46.6864 18.6758C46.6864 18.6758 43.6339 22.966 48.9132 26.272Z" fill="#689E2F"/>
<path d="M53.1686 56.0499C53.1686 56.0499 60.3745 44.2896 50.6916 38.46C50.6916 38.46 42.5099 46.99 53.1686 56.0499Z" fill="#689E2F"/>
<path d="M40.5063 44.1389C40.5063 44.1389 51.19 33.0348 43.9842 22.082C43.9842 22.082 33.4256 28.9212 40.5063 44.1389Z" fill="#234348"/>
<path d="M61.1503 36.8717C61.1503 36.8717 65.6039 22.0577 54.2447 15.6729C54.2447 15.6729 47.9646 26.6256 61.1503 36.8717Z" fill="#234348"/>
<path d="M39.4825 52.3652C39.4825 52.3652 34.1031 37.1475 21.1426 40.4787C21.1426 40.4787 22.7439 53.9551 39.4825 52.3652Z" fill="#234348"/>
<path d="M21.5922 58.4223C23.9828 58.4223 25.9207 56.4676 25.9207 54.0564C25.9207 51.6451 23.9828 49.6904 21.5922 49.6904C19.2016 49.6904 17.2637 51.6451 17.2637 54.0564C17.2637 56.4676 19.2016 58.4223 21.5922 58.4223Z" fill="#689E2F"/>
<path d="M31.0502 37.4C33.04 37.4 34.6531 35.773 34.6531 33.7659C34.6531 31.7589 33.04 30.1318 31.0502 30.1318C29.0604 30.1318 27.4473 31.7589 27.4473 33.7659C27.4473 35.773 29.0604 37.4 31.0502 37.4Z" fill="#689E2F"/>
<path d="M11.2582 75.5593C12.8473 75.5593 14.1355 74.26 14.1355 72.6571C14.1355 71.0543 12.8473 69.7549 11.2582 69.7549C9.66909 69.7549 8.38086 71.0543 8.38086 72.6571C8.38086 74.26 9.66909 75.5593 11.2582 75.5593Z" fill="#689E2F"/>
<path d="M13.6117 96.3546C15.7121 96.3546 17.4148 94.6371 17.4148 92.5186C17.4148 90.4 15.7121 88.6826 13.6117 88.6826C11.5113 88.6826 9.80859 90.4 9.80859 92.5186C9.80859 94.6371 11.5113 96.3546 13.6117 96.3546Z" fill="#689E2F"/>
<path d="M23.5682 120.53C26.3457 120.53 28.5973 118.259 28.5973 115.457C28.5973 112.656 26.3457 110.385 23.5682 110.385C20.7907 110.385 18.5391 112.656 18.5391 115.457C18.5391 118.259 20.7907 120.53 23.5682 120.53Z" fill="#689E2F"/>
<path d="M36.6037 75.0285C37.2532 75.0285 37.7797 74.4975 37.7797 73.8424C37.7797 73.1873 37.2532 72.6562 36.6037 72.6562C35.9542 72.6562 35.4277 73.1873 35.4277 73.8424C35.4277 74.4975 35.9542 75.0285 36.6037 75.0285Z" fill="#689E2F"/>
<path d="M76.6874 28.9467C76.6874 28.9467 63.1764 24.1517 66.2039 12.5176C66.2039 12.5176 78.1886 13.9056 76.6874 28.9467Z" fill="#689E2F"/>
<path d="M75.1635 51.9878C75.1635 51.9878 63.3789 43.7606 69.3588 33.3379C69.3588 33.3379 80.5429 37.8805 75.1635 51.9878Z" fill="#234348"/>
<path d="M90.1496 28.0629C90.1496 28.0629 103.661 23.2679 100.633 11.6338C100.633 11.6338 88.6484 13.0218 90.1496 28.0629Z" fill="#689E2F"/>
<path d="M91.6742 51.1284C91.6742 51.1284 103.459 42.9013 97.4789 32.4785C97.4789 32.4785 86.2948 37.0211 91.6742 51.1284Z" fill="#234348"/>
<path d="M82.6684 65.3633C82.6684 65.3633 74.2366 53.6787 83.2939 45.8301C83.2939 45.8301 92.3513 53.8301 82.6684 65.3633Z" fill="#234348"/>
<path d="M83.0668 44.6685C83.0668 44.6685 78.463 36.1133 83.2169 29.0723C83.2169 29.0723 88.1209 34.6243 83.0668 44.6685Z" fill="#689E2F"/>
<path d="M82.6684 28.0127C82.6684 28.0127 74.2366 16.3281 83.2939 8.47949C83.2939 8.47949 92.3513 16.4795 82.6684 28.0127Z" fill="#234348"/>
<path d="M21.7946 125.073C21.7946 125.073 30.2264 123.937 37.7826 120.505C45.3387 117.073 45.7891 116.543 45.9893 117.83C46.1894 119.117 46.0143 122.827 46.4897 123.659C46.965 124.492 48.141 126.032 54.4461 123.23C60.7513 120.429 63.3284 118.435 65.0298 115.432C66.7311 112.429 66.7311 110.713 67.0564 108.972C67.3817 107.23 67.0564 105.615 67.0564 105.615C67.0564 105.615 72.3107 107.558 72.9362 117.476C73.5867 127.394 73.7869 133.022 71.1097 138.953C68.3074 145.01 66.9563 148.013 62.1274 150.284C57.949 151.697 55.4219 151.798 49.392 148.77C43.3621 145.742 37.107 141.426 31.9528 136.152C26.7986 130.877 21.7695 125.047 21.7695 125.047L21.7946 125.073Z" fill="#689E2F"/>
<path d="M143.867 125.073C143.867 125.073 135.435 123.937 127.879 120.505C120.323 117.073 119.873 116.543 119.672 117.83C119.472 119.117 119.647 122.827 119.172 123.659C118.697 124.492 117.521 126.032 111.216 123.23C104.91 120.429 102.333 118.435 100.632 115.432C98.9306 112.429 98.9306 110.713 98.6053 108.972C98.2801 107.23 98.6053 105.615 98.6053 105.615C98.6053 105.615 93.351 107.558 92.7255 117.476C92.1 127.394 91.8748 133.022 94.552 138.953C97.3543 145.01 98.7054 148.013 103.534 150.284C107.713 151.697 110.24 151.798 116.27 148.77C122.275 145.742 128.555 141.426 133.709 136.152C138.838 130.852 143.892 125.047 143.892 125.047L143.867 125.073Z" fill="#689E2F"/>
<path d="M102.657 102.208C102.657 102.208 119.947 105.994 116.644 120.277C116.644 120.277 101.457 120.328 102.657 102.208Z" fill="#234348"/>
<path d="M121.674 94.7379C121.674 94.7379 130.131 81.6905 140.639 88.883C140.639 88.883 135.935 101.375 121.674 94.7379Z" fill="#689E2F"/>
<path d="M136.66 78.7145C136.66 78.7145 150.196 71.2192 156.126 82.5757C156.126 82.5757 146.143 91.3581 136.66 78.7145Z" fill="#234348"/>
<path d="M118.07 69.5778C118.07 69.5778 122.824 54.7639 134.859 58.9027C134.859 58.9027 133.558 72.2024 118.07 69.5778Z" fill="#234348"/>
<path d="M105.338 84.8454C105.338 84.8454 110.092 70.0315 122.127 74.1703C122.127 74.1703 120.826 87.47 105.338 84.8454Z" fill="#234348"/>
<path d="M97.3783 71.5198C97.3783 71.5198 94.3759 56.2264 106.886 53.9551C106.886 53.9551 112.19 66.2201 97.3783 71.5198Z" fill="#234348"/>
<path d="M91.4254 79.3688C91.4254 79.3688 90.2495 73.3372 95.1785 72.4287C95.1785 72.4287 97.2802 77.2742 91.4254 79.3688Z" fill="#689E2F"/>
<path d="M116.621 26.272C116.621 26.272 114.194 20.619 118.848 18.6758C118.848 18.6758 121.9 22.966 116.621 26.272Z" fill="#689E2F"/>
<path d="M112.367 56.0499C112.367 56.0499 105.161 44.2896 114.844 38.46C114.844 38.46 123.026 46.99 112.367 56.0499Z" fill="#689E2F"/>
<path d="M125.025 44.1389C125.025 44.1389 114.342 33.0348 121.547 22.082C121.547 22.082 132.106 28.9212 125.025 44.1389Z" fill="#234348"/>
<path d="M104.386 36.8717C104.386 36.8717 99.932 22.0577 111.291 15.6729C111.291 15.6729 117.571 26.6256 104.386 36.8717Z" fill="#234348"/>
<path d="M126.053 52.3652C126.053 52.3652 131.432 37.1475 144.393 40.4787C144.393 40.4787 142.791 53.9551 126.053 52.3652Z" fill="#234348"/>
<path d="M143.942 58.4223C146.332 58.4223 148.27 56.4676 148.27 54.0564C148.27 51.6451 146.332 49.6904 143.942 49.6904C141.551 49.6904 139.613 51.6451 139.613 54.0564C139.613 56.4676 141.551 58.4223 143.942 58.4223Z" fill="#689E2F"/>
<path d="M134.486 37.4C136.476 37.4 138.089 35.773 138.089 33.7659C138.089 31.7589 136.476 30.1318 134.486 30.1318C132.496 30.1318 130.883 31.7589 130.883 33.7659C130.883 35.773 132.496 37.4 134.486 37.4Z" fill="#689E2F"/>
<path d="M154.276 75.5593C155.865 75.5593 157.153 74.26 157.153 72.6571C157.153 71.0543 155.865 69.7549 154.276 69.7549C152.687 69.7549 151.398 71.0543 151.398 72.6571C151.398 74.26 152.687 75.5593 154.276 75.5593Z" fill="#689E2F"/>
<path d="M151.924 96.3546C154.025 96.3546 155.727 94.6371 155.727 92.5186C155.727 90.4 154.025 88.6826 151.924 88.6826C149.824 88.6826 148.121 90.4 148.121 92.5186C148.121 94.6371 149.824 96.3546 151.924 96.3546Z" fill="#689E2F"/>
<path d="M141.967 120.53C144.744 120.53 146.996 118.259 146.996 115.457C146.996 112.656 144.744 110.385 141.967 110.385C139.189 110.385 136.938 112.656 136.938 115.457C136.938 118.259 139.189 120.53 141.967 120.53Z" fill="#689E2F"/>
<path d="M128.932 75.0285C129.581 75.0285 130.108 74.4975 130.108 73.8424C130.108 73.1873 129.581 72.6562 128.932 72.6562C128.282 72.6562 127.756 73.1873 127.756 73.8424C127.756 74.4975 128.282 75.0285 128.932 75.0285Z" fill="#689E2F"/>
</svg>
