<svg width="79" height="79" viewBox="0 0 79 79" xmlns="http://www.w3.org/2000/svg"><path d="M27.8361 60.4127C27.4643 63.0615 25.1873 65.0597 22.492 65.0597H20.9585C19.6573 65.0597 18.6349 66.0821 18.6349 67.3833C18.6349 68.6844 19.6573 69.7068 20.9585 69.7068H22.492C25.2338 69.7068 27.4643 71.705 27.8361 74.3539H51.1643C51.5361 71.705 53.8132 69.7068 56.5085 69.7068H58.042C59.3432 69.7068 60.3655 68.6844 60.3655 67.3833C60.3655 66.0821 59.3432 65.0597 58.042 65.0597H56.5085C53.7667 65.0597 51.5361 63.0615 51.1643 60.4127H27.8361ZM23.2355 59.6227C23.2355 57.485 24.9549 55.7656 27.0926 55.7656H51.8614C53.9991 55.7656 55.7185 57.485 55.7185 59.6227C55.7185 60.0409 56.0438 60.4127 56.5085 60.4127H58.042C61.8991 60.4127 65.0126 63.5262 65.0126 67.3833C65.0126 71.2403 61.8991 74.3539 58.042 74.3539H56.5085C56.0902 74.3539 55.7185 74.6792 55.7185 75.1439C55.7185 77.2815 53.9991 79.0009 51.8614 79.0009H27.0926C24.9549 79.0009 23.2355 77.2815 23.2355 75.1439C23.2355 74.7256 22.9102 74.3539 22.4455 74.3539H20.912C17.0549 74.3539 13.9414 71.2403 13.9414 67.3833C13.9414 63.5262 17.0549 60.4127 20.912 60.4127H22.4455C22.8638 60.4127 23.2355 60.0874 23.2355 59.6227Z M27.8361 32.5299C27.4643 35.1787 25.1873 37.1769 22.492 37.1769H20.9585C19.6573 37.1769 18.6349 38.1993 18.6349 39.5005C18.6349 40.8016 19.6573 41.824 20.9585 41.824H22.492C25.2338 41.824 27.4643 43.8222 27.8361 46.471H51.1643C51.5361 43.8222 53.8132 41.824 56.5085 41.824H58.042C59.3432 41.824 60.3655 40.8016 60.3655 39.5005C60.3655 38.1993 59.3432 37.1769 58.042 37.1769H56.5085C53.7667 37.1769 51.5361 35.1787 51.1643 32.5299H27.8361ZM23.2355 31.7399C23.2355 29.6022 24.9549 27.8828 27.0926 27.8828H51.8614C53.9991 27.8828 55.7185 29.6022 55.7185 31.7399C55.7185 32.1581 56.0438 32.5299 56.5085 32.5299H58.042C61.8991 32.5299 65.0126 35.6434 65.0126 39.5005C65.0126 43.3575 61.8991 46.471 58.042 46.471H56.5085C56.0902 46.471 55.7185 46.7963 55.7185 47.261C55.7185 49.3987 53.9991 51.1181 51.8614 51.1181H27.0926C24.9549 51.1181 23.2355 49.3987 23.2355 47.261C23.2355 46.8428 22.9102 46.471 22.4455 46.471H20.912C17.0549 46.471 13.9414 43.3575 13.9414 39.5005C13.9414 35.6434 17.0549 32.5299 20.912 32.5299H22.4455C22.8638 32.5299 23.2355 32.2046 23.2355 31.7399Z M30.205 51.1178C28.9038 51.1178 27.8814 52.1401 27.8814 53.4413C27.8814 54.7425 28.9038 55.7648 30.205 55.7648H48.7932C50.0944 55.7648 51.1167 54.7425 51.1167 53.4413C51.1167 52.1401 50.0944 51.1178 48.7932 51.1178H30.205ZM23.2344 53.4413C23.2344 49.5842 26.3479 46.4707 30.205 46.4707H48.7932C52.6503 46.4707 55.7638 49.5842 55.7638 53.4413C55.7638 57.2984 52.6503 60.4119 48.7932 60.4119H30.205C26.3479 60.4119 23.2344 57.2984 23.2344 53.4413Z M27.8361 4.64706C27.4643 7.29588 25.1873 9.29412 22.492 9.29412H20.9585C19.6573 9.29412 18.6349 10.3165 18.6349 11.6176C18.6349 12.9188 19.6573 13.9412 20.9585 13.9412H22.492C25.2338 13.9412 27.4643 15.9394 27.8361 18.5882H51.1643C51.5361 15.9394 53.8132 13.9412 56.5085 13.9412H58.042C59.3432 13.9412 60.3655 12.9188 60.3655 11.6176C60.3655 10.3165 59.3432 9.29412 58.042 9.29412H56.5085C53.7667 9.29412 51.5361 7.29588 51.1643 4.64706H27.8361ZM23.2355 3.85706C23.2355 1.71941 24.9549 0 27.0926 0H51.8614C53.9991 0 55.7185 1.71941 55.7185 3.85706C55.7185 4.27529 56.0438 4.64706 56.5085 4.64706H58.042C61.8991 4.64706 65.0126 7.76059 65.0126 11.6176C65.0126 15.4747 61.8991 18.5882 58.042 18.5882H56.5085C56.0902 18.5882 55.7185 18.9135 55.7185 19.3782C55.7185 21.5159 53.9991 23.2353 51.8614 23.2353H27.0926C24.9549 23.2353 23.2355 21.5159 23.2355 19.3782C23.2355 18.96 22.9102 18.5882 22.4455 18.5882H20.912C17.0549 18.5882 13.9414 15.4747 13.9414 11.6176C13.9414 7.76059 17.0549 4.64706 20.912 4.64706H22.4455C22.8638 4.64706 23.2355 4.32176 23.2355 3.85706Z M30.205 23.2349C28.9038 23.2349 27.8814 24.2573 27.8814 25.5585C27.8814 26.8597 28.9038 27.882 30.205 27.882H48.7932C50.0944 27.882 51.1167 26.8597 51.1167 25.5585C51.1167 24.2573 50.0944 23.2349 48.7932 23.2349H30.205ZM23.2344 25.5585C23.2344 21.7014 26.3479 18.5879 30.205 18.5879H48.7932C52.6503 18.5879 55.7638 21.7014 55.7638 25.5585C55.7638 29.4155 52.6503 32.5291 48.7932 32.5291H30.205C26.3479 32.5291 23.2344 29.4155 23.2344 25.5585Z M9.29412 39.4993C9.29412 38.1981 8.27177 37.1758 6.97059 37.1758H2.32353C1.02235 37.1758 0 38.1981 0 39.4993C0 40.8005 1.02235 41.8228 2.32353 41.8228H6.97059C8.27177 41.8228 9.29412 40.8005 9.29412 39.4993Z M7.48186 25.047C6.69186 26.0693 6.83127 27.5099 7.85362 28.2999L12.5007 32.0176C13.523 32.8076 14.9636 32.6682 15.7536 31.6458C16.5436 30.6235 16.4042 29.1829 15.3819 28.3929L10.7348 24.6752C9.71245 23.8852 8.27186 24.0246 7.48186 25.047Z M7.48186 53.9524C6.69186 52.9301 6.83127 51.4895 7.85362 50.6995L12.5007 46.9819C13.523 46.1919 14.9636 46.3313 15.7536 47.3536C16.5436 48.376 16.4042 49.8166 15.3819 50.6066L10.7348 54.3242C9.71245 55.1142 8.27186 54.9748 7.48186 53.9524Z M71.5173 25.047C72.3073 26.0693 72.1679 27.5099 71.1455 28.2999L66.4985 32.0176C65.4761 32.8076 64.0355 32.6682 63.2455 31.6458C62.4555 30.6235 62.5949 29.1829 63.6173 28.3929L68.2644 24.6752C69.2867 23.8852 70.7273 24.0246 71.5173 25.047ZM69.7049 39.4993C69.7049 38.1982 70.7273 37.1758 72.0285 37.1758H76.6755C77.9767 37.1758 78.9991 38.1982 78.9991 39.4993C78.9991 40.8005 77.9767 41.8229 76.6755 41.8229H72.0285C70.7273 41.8229 69.7049 40.8005 69.7049 39.4993ZM63.2455 47.3529C64.0355 46.3305 65.5226 46.1911 66.4985 46.9811L71.1455 50.6987C72.1679 51.4887 72.3073 52.9758 71.5173 53.9517C70.7273 54.9276 69.2402 55.1135 68.2644 54.3235L63.6173 50.6058C62.5949 49.8158 62.4555 48.3287 63.2455 47.3529Z" fill="white"/></svg>